HIERARCHY
ROOT Hips
{
	OFFSET -0.001795 -0.223333 0.028219
	CHANNELS 6 Xposition Yposition Zposition Zrotation Yrotation Xrotation 
	JOINT LeftUpLeg
	{
		OFFSET 0.069520 -0.091406 -0.006815
		CHANNELS 3 Zrotation Yrotation Xrotation
		JOINT LeftLeg
		{
			OFFSET 0.034277 -0.375199 -0.004496
			CHANNELS 3 Zrotation Yrotation Xrotation
			JOINT LeftFoot
			{
				OFFSET -0.013596 -0.397961 -0.043693
				CHANNELS 3 Zrotation Yrotation Xrotation
				JOINT LeftToe
				{
					OFFSET 0.026358 -0.055791 0.119288
					CHANNELS 3 Zrotation Yrotation Xrotation
					End Site
					{
						OFFSET 0.000000 0.000000 0.000000
					}
				}
			}
		}
	}
	JOINT RightUpLeg
	{
		OFFSET -0.067670 -0.090522 -0.004320
		CHANNELS 3 Zrotation Yrotation Xrotation
		JOINT RightLeg
		{
			OFFSET -0.038290 -0.382569 -0.008850
			CHANNELS 3 Zrotation Yrotation Xrotation
			JOINT RightFoot
			{
				OFFSET 0.015774 -0.398415 -0.042312
				CHANNELS 3 Zrotation Yrotation Xrotation
				JOINT RightToe
				{
					OFFSET -0.025372 -0.048144 0.123348
					CHANNELS 3 Zrotation Yrotation Xrotation
					End Site
					{
						OFFSET 0.000000 0.000000 0.000000
					}
				}
			}
		}
	}
	JOINT Spine
	{
		OFFSET -0.002533 0.108963 -0.026696
		CHANNELS 3 Zrotation Yrotation Xrotation
		JOINT Spine1
		{
			OFFSET 0.005487 0.135180 0.001092
			CHANNELS 3 Zrotation Yrotation Xrotation
			JOINT Spine2
			{
				OFFSET 0.001457 0.052922 0.025425
				CHANNELS 3 Zrotation Yrotation Xrotation
				JOINT Neck
				{
					OFFSET -0.002778 0.213870 -0.042857
					CHANNELS 3 Zrotation Yrotation Xrotation
					JOINT Head
					{
						OFFSET 0.005152 0.064970 0.051349
						CHANNELS 3 Zrotation Yrotation Xrotation
						End Site
						{
							OFFSET 0.000000 0.000000 0.000000
						}
					}
				}
				JOINT LeftShoulder
				{
					OFFSET 0.078845 0.121749 -0.034090
					CHANNELS 3 Zrotation Yrotation Xrotation
					JOINT LeftArm
					{
						OFFSET 0.090977 0.030469 -0.008868
						CHANNELS 3 Zrotation Yrotation Xrotation
						JOINT LeftForeArm
						{
							OFFSET 0.259612 -0.012772 -0.027456
							CHANNELS 3 Zrotation Yrotation Xrotation
							JOINT LeftHand
							{
								OFFSET 0.249234 0.008986 -0.001171
								CHANNELS 3 Zrotation Yrotation Xrotation
								End Site
								{
									OFFSET 0.000000 0.000000 0.000000
								}
							}
						}
					}
				}
				JOINT RightShoulder
				{
					OFFSET -0.081759 0.118833 -0.038615
					CHANNELS 3 Zrotation Yrotation Xrotation
					JOINT RightArm
					{
						OFFSET -0.096012 0.032551 -0.009143
						CHANNELS 3 Zrotation Yrotation Xrotation
						JOINT RightForeArm
						{
							OFFSET -0.253742 -0.013329 -0.021401
							CHANNELS 3 Zrotation Yrotation Xrotation
							JOINT RightHand
							{
								OFFSET -0.255298 0.007772 -0.005559
								CHANNELS 3 Zrotation Yrotation Xrotation
								End Site
								{
									OFFSET 0.000000 0.000000 0.000000
								}
							}
						}
					}
				}
			}
		}
	}
}
MOTION
Frames: 18
Frame Time: 0.050000
0.000000 0.947791 0.000000 -0.453193 -5.575848 1.228805 -1.595026 0.139415 1.177535 0.528751 0.045871 -2.865450 -1.111589 -0.103984 5.596982 0.000000 0.000000 0.000000 2.259288 0.048611 -1.107726 -1.761801 0.213959 0.799854 1.942309 1.336606 5.450331 0.000000 0.000000 0.000000 5.364515 -0.076325 0.229156 -3.154882 1.411096 -4.623155 -3.532508 5.778417 9.776188 7.121258 -2.415792 -19.590701 0.000000 0.000000 0.000000 -17.613176 -7.389763 1.537832 -55.829307 -6.167905 -4.229388 -7.798216 -23.329178 2.409365 0.000000 0.000000 0.000000 15.907592 -1.291792 -1.324048 65.244901 2.993962 -5.152545 8.211292 25.374264 2.840094 0.000000 0.000000 0.000000 
-0.000023 0.947019 0.000778 -0.668293 -5.929057 1.737569 -0.964582 0.175523 1.619669 -0.045145 0.168254 -4.775739 -0.923287 0.263704 5.681203 0.000000 0.000000 0.000000 2.359594 0.097739 -1.587869 -1.855204 0.222379 0.804529 1.564798 0.796997 4.876048 0.000000 0.000000 0.000000 6.106910 -0.019269 -0.530919 -3.144073 1.424085 -3.497671 -4.573939 6.550296 9.011218 7.306115 -2.175101 -21.063524 0.000000 0.000000 0.000000 -17.613986 -7.613211 1.413110 -55.484297 -6.735235 -3.820343 -8.107669 -23.508470 2.438689 0.000000 0.000000 0.000000 15.554280 -1.885322 -1.456179 66.465851 2.408111 -5.415399 8.173864 25.968677 2.957882 0.000000 0.000000 0.000000 
-0.000081 0.946629 0.001263 -0.223865 -6.130044 1.809981 -1.296793 0.140879 1.234137 -0.111553 0.146445 -4.021691 -0.971657 0.076948 5.472244 0.000000 0.000000 0.000000 2.071153 0.119608 -1.737898 -1.986746 0.247676 1.015217 1.520082 0.614132 4.983716 0.000000 0.000000 0.000000 6.081305 -0.017138 -0.565098 -3.430375 1.515341 -4.857469 -4.487342 6.792826 10.115133 6.113125 -1.532198 -20.941572 0.000000 0.000000 0.000000 -16.692326 -7.523238 1.475213 -56.201569 -7.467865 -3.676428 -8.102489 -22.253103 2.321647 0.000000 0.000000 0.000000 16.057575 -1.356695 -1.184451 65.914314 2.578869 -5.424159 7.967520 25.596386 2.873308 0.000000 0.000000 0.000000 
-0.000250 0.946702 0.001715 -0.078991 -6.151923 1.788615 -1.216846 0.192075 1.720935 -0.310618 0.194982 -4.936247 -1.460351 -0.569847 6.246346 0.000000 0.000000 0.000000 2.041463 0.137276 -1.886005 -1.963627 0.226651 0.705022 1.471026 0.344499 5.252928 0.000000 0.000000 0.000000 5.967049 0.025489 -1.001164 -3.103084 1.393179 -3.961413 -4.906707 6.968539 9.745797 5.827768 -1.316387 -21.001309 0.000000 0.000000 0.000000 -16.524774 -7.785183 1.536021 -57.019158 -8.166296 -3.352861 -7.260702 -22.175587 2.135058 0.000000 0.000000 0.000000 15.363420 -1.151481 -0.996956 66.501958 2.759997 -5.271633 8.351180 26.113229 3.038516 0.000000 0.000000 0.000000 
-0.000430 0.947261 0.002130 0.004521 -6.147171 1.578578 -1.378912 0.185472 1.632052 -0.030290 0.163486 -4.677644 -1.158785 0.053889 6.393259 0.000000 0.000000 0.000000 1.917012 0.121613 -1.716858 -2.045055 0.238250 0.755867 1.376027 0.204487 5.125218 0.000000 0.000000 0.000000 5.939870 0.003616 -0.727272 -3.129438 1.404925 -3.977748 -4.882239 7.189237 9.752215 5.595969 -1.197625 -20.689944 0.000000 0.000000 0.000000 -16.236565 -8.282668 1.753780 -57.162587 -8.796931 -3.062694 -7.221923 -21.693681 2.072250 0.000000 0.000000 0.000000 15.204979 -0.914760 -0.827724 66.561027 2.940075 -5.153373 8.230592 26.126753 3.022825 0.000000 0.000000 0.000000 
-0.000645 0.947642 0.002728 0.047894 -6.063425 1.367018 -1.501279 0.208704 1.821297 -0.121589 0.170424 -4.665386 -1.073961 0.158313 6.215775 0.000000 0.000000 0.000000 1.900464 0.082535 -1.357112 -2.050993 0.223748 0.498143 1.548008 0.577881 5.158793 0.000000 0.000000 0.000000 5.934555 0.000675 -0.654797 -3.032691 1.362106 -4.068547 -4.821878 7.086160 10.087004 5.097735 -0.950906 -20.491544 0.000000 0.000000 0.000000 -16.458356 -8.551780 1.904662 -56.986284 -9.054091 -2.956390 -7.042604 -22.004333 2.075788 0.000000 0.000000 0.000000 15.044274 -0.310416 -0.522514 66.523680 3.227023 -5.024161 7.746718 26.206518 2.923138 0.000000 0.000000 0.000000 
-0.000842 0.947904 0.003355 0.054660 -6.053576 1.232329 -1.527033 0.223426 1.951196 -0.065351 0.164981 -4.639298 -0.871010 0.581308 6.321472 0.000000 0.000000 0.000000 1.830754 0.061628 -1.150483 -2.145960 0.230070 0.442688 1.560134 0.703017 4.992761 0.000000 0.000000 0.000000 5.916146 -0.009914 -0.513473 -3.094183 1.388930 -4.108926 -4.785994 6.952384 10.252278 5.137552 -0.969460 -20.678827 0.000000 0.000000 0.000000 -16.589220 -8.466817 1.891956 -56.984707 -9.073503 -2.962361 -7.539254 -22.352815 2.213031 0.000000 0.000000 0.000000 15.087214 -0.197123 -0.489468 66.402136 3.374208 -4.962237 8.143965 26.547142 3.053358 0.000000 0.000000 0.000000 
-0.000995 0.947942 0.003975 0.026151 -5.884609 1.246160 -1.637461 0.217486 1.872853 0.181407 0.126573 -4.153162 -0.824394 0.505198 5.825286 0.000000 0.000000 0.000000 1.931379 0.044965 -1.020363 -2.260626 0.242874 0.454100 1.566634 1.016448 4.510404 0.000000 0.000000 0.000000 5.877350 0.000565 -0.630985 -3.077379 1.384799 -4.044388 -4.743840 6.588713 10.424733 4.867439 -0.851348 -20.688431 0.000000 0.000000 0.000000 -16.522048 -8.554785 2.015462 -57.061157 -9.245398 -2.909149 -7.958078 -22.711117 2.347591 0.000000 0.000000 0.000000 14.825616 0.123799 -0.369136 66.530348 3.741743 -4.781045 8.150929 26.694468 3.060144 0.000000 0.000000 0.000000 
-0.001144 0.947874 0.004456 -0.009367 -6.067599 1.117388 -1.745865 0.227270 1.942282 0.361410 0.096986 -3.790959 -0.655900 0.682770 5.453094 0.000000 0.000000 0.000000 1.997292 0.022292 -0.835519 -2.254919 0.241060 0.443594 1.589236 1.203038 4.265678 0.000000 0.000000 0.000000 5.803602 -0.006150 -0.526493 -3.041419 1.364651 -4.173851 -4.628509 6.493154 10.751327 4.671930 -0.776413 -20.659087 0.000000 0.000000 0.000000 -16.449503 -8.620685 2.121992 -57.204594 -9.433577 -2.870015 -8.430675 -23.012826 2.490616 0.000000 0.000000 0.000000 14.836244 0.502875 -0.215482 66.287582 4.182941 -4.571923 8.445089 26.958760 3.153239 0.000000 0.000000 0.000000 
-0.001292 0.947869 0.004883 -0.060588 -6.309242 1.047081 -1.777526 0.218690 1.865135 0.507520 0.063514 -3.285568 -0.551490 0.734433 5.072028 0.000000 0.000000 0.000000 1.995771 0.010115 -0.731765 -2.272102 0.240291 0.415127 1.650136 1.531531 3.935871 0.000000 0.000000 0.000000 5.833466 -0.005762 -0.511579 -3.103202 1.391555 -4.058550 -4.581135 6.498368 10.793521 4.583280 -0.750688 -20.599751 0.000000 0.000000 0.000000 -16.281118 -8.679998 2.196314 -57.212348 -9.658424 -2.778130 -8.914513 -23.207570 2.618421 0.000000 0.000000 0.000000 14.806526 0.889934 -0.044979 66.125460 4.542107 -4.377028 8.752260 27.142364 3.238321 0.000000 0.000000 0.000000 
-0.001454 0.947726 0.005360 -0.156010 -6.389663 0.951593 -1.680859 0.216962 1.873038 0.590040 0.043162 -2.976430 -0.598870 0.556469 4.842505 0.000000 0.000000 0.000000 2.206352 -0.020555 -0.513228 -2.261396 0.235128 0.351584 1.770875 1.832062 3.895767 0.000000 0.000000 0.000000 5.915038 -0.006437 -0.481911 -3.073405 1.378583 -4.028045 -4.605476 6.520190 10.875753 4.807556 -0.899535 -20.478331 0.000000 0.000000 0.000000 -16.104215 -8.891179 2.318609 -57.114473 -9.630324 -2.801919 -9.382134 -23.803768 2.787168 0.000000 0.000000 0.000000 14.728188 0.889609 -0.044660 66.015107 4.825765 -4.219849 9.352235 27.153329 3.377592 0.000000 0.000000 0.000000 
-0.001580 0.947433 0.005982 -0.226103 -6.451057 0.765500 -1.650834 0.239810 2.086802 0.594557 0.030778 -2.682869 -0.651914 0.331781 4.510354 0.000000 0.000000 0.000000 2.338990 -0.057867 -0.215276 -2.353937 0.247321 0.399866 2.097675 2.710209 3.711517 0.000000 0.000000 0.000000 5.982003 -0.005208 -0.453128 -3.028193 1.365064 -3.728281 -4.576690 6.465733 10.616730 5.108254 -1.145458 -19.958261 0.000000 0.000000 0.000000 -15.988998 -8.821779 2.294861 -57.071163 -9.544789 -2.820784 -9.673392 -24.020558 2.873585 0.000000 0.000000 0.000000 14.746897 1.069998 0.025770 65.624160 4.936555 -4.124633 9.640994 27.325817 3.458662 0.000000 0.000000 0.000000 
-0.001629 0.947134 0.006662 -0.379185 -6.365484 0.698936 -1.549594 0.251505 2.213724 0.730422 0.011006 -2.519536 -0.645208 0.250606 4.233627 0.000000 0.000000 0.000000 2.440922 -0.073471 -0.101291 -2.444423 0.254932 0.369492 2.263225 3.144689 3.651803 0.000000 0.000000 0.000000 6.041557 -0.007248 -0.418717 -2.979752 1.346221 -3.661961 -4.458087 6.478019 10.571290 5.403761 -1.360347 -19.593350 0.000000 0.000000 0.000000 -16.126109 -9.080387 2.402844 -56.765262 -9.561868 -2.785687 -9.973524 -24.216586 2.956874 0.000000 0.000000 0.000000 14.734931 0.980391 -0.009525 65.338958 5.043586 -4.046987 9.905532 27.319504 3.521226 0.000000 0.000000 0.000000 
-0.001591 0.946646 0.007237 -0.574783 -6.545219 0.622014 -1.341266 0.252087 2.267661 0.851826 -0.013190 -2.236332 -0.383910 0.601816 3.791480 0.000000 0.000000 0.000000 2.550535 -0.088988 0.000888 -2.467235 0.270381 0.585883 2.348886 3.590084 3.278384 0.000000 0.000000 0.000000 6.233160 0.004167 -0.511158 -3.032333 1.378812 -3.184559 -4.275936 6.472911 10.286882 5.626696 -1.572652 -19.055101 0.000000 0.000000 0.000000 -16.189081 -9.034686 2.389493 -56.474564 -9.385936 -2.827549 -9.865089 -24.405677 2.957148 0.000000 0.000000 0.000000 14.754231 1.116995 0.033157 65.015183 5.133664 -3.966332 9.842410 27.429997 3.511507 0.000000 0.000000 0.000000 
-0.001532 0.946228 0.007664 -0.724256 -6.465852 0.698865 -1.279468 0.255440 2.310528 1.048894 -0.038200 -2.112672 -0.296149 0.705674 3.579731 0.000000 0.000000 0.000000 2.555621 -0.086610 -0.022798 -2.465707 0.263010 0.468191 2.375747 3.675967 3.254177 0.000000 0.000000 0.000000 6.315088 0.020138 -0.689636 -3.002309 1.365504 -3.203787 -4.116703 6.523750 10.413181 5.778071 -1.641668 -19.169388 0.000000 0.000000 0.000000 -16.273650 -9.063175 2.388044 -56.315641 -9.288345 -2.872057 -9.542967 -24.488012 2.896035 0.000000 0.000000 0.000000 14.808861 1.040885 0.009918 64.759299 5.088892 -3.994295 9.637327 27.622666 3.500003 0.000000 0.000000 0.000000 
-0.001536 0.945863 0.007909 -0.861296 -6.328730 0.684170 -1.018224 0.248332 2.305819 0.967264 -0.038158 -1.910360 -0.065148 1.023402 3.145726 0.000000 0.000000 0.000000 2.725745 -0.082484 -0.098578 -2.477212 0.278208 0.680301 2.273784 3.653618 2.944026 0.000000 0.000000 0.000000 6.332007 0.026624 -0.755572 -2.962887 1.349531 -3.187372 -3.923954 6.478878 10.538879 6.115984 -1.848718 -19.156199 0.000000 0.000000 0.000000 -16.466344 -9.077801 2.390019 -56.118882 -9.055896 -2.978720 -9.215236 -24.597901 2.840020 0.000000 0.000000 0.000000 15.156772 1.056335 0.010539 64.093939 4.992035 -4.050266 9.671901 27.854956 3.542871 0.000000 0.000000 0.000000 
-0.001696 0.945527 0.008076 -1.001412 -6.244816 0.714732 -0.878814 0.256103 2.411488 0.997734 -0.044016 -1.840344 0.029635 1.218225 3.143304 0.000000 0.000000 0.000000 2.847491 -0.085377 -0.105067 -2.382751 0.269635 0.691984 2.184781 3.461096 2.921128 0.000000 0.000000 0.000000 6.372329 0.041897 -0.916492 -2.851332 1.304640 -2.970120 -3.893408 6.415796 10.594074 6.420267 -2.016821 -19.277499 0.000000 0.000000 0.000000 -16.359359 -8.888580 2.304298 -56.256641 -8.908627 -3.065593 -8.981058 -24.402935 2.768432 0.000000 0.000000 0.000000 15.465598 0.902429 -0.078624 63.793892 5.049917 -4.023148 9.429690 27.957061 3.501546 0.000000 0.000000 0.000000 
-0.001931 0.945216 0.008185 -1.156670 -6.237668 0.794596 -0.701561 0.263925 2.528846 0.948835 -0.040200 -1.808320 0.213058 1.521649 2.945957 0.000000 0.000000 0.000000 2.992440 -0.093391 -0.081488 -2.321932 0.265045 0.718406 2.165079 3.426748 2.903751 0.000000 0.000000 0.000000 6.431522 0.049039 -1.002806 -2.843364 1.299001 -3.066760 -3.747525 6.560794 10.855762 6.568960 -2.105872 -19.212462 0.000000 0.000000 0.000000 -16.200396 -9.066845 2.382178 -56.364932 -8.857928 -3.121293 -8.805897 -24.489215 2.738892 0.000000 0.000000 0.000000 15.721286 0.790379 -0.113258 63.619458 5.117911 -4.008470 9.151776 27.962429 3.448626 0.000000 0.000000 0.000000 
